<mxfile host="app.diagrams.net" agent="Mozilla/5.0 (Windows NT 10.0; Win64; x64) AppleWebKit/537.36 (KHTML, like Gecko) Chrome/131.0.0.0 Safari/537.36" version="26.0.6">
  <diagram name="Page-1" id="sU4l5hwIRd3nedYnitVG">
    <mxGraphModel dx="954" dy="618" grid="1" gridSize="10" guides="1" tooltips="1" connect="1" arrows="1" fold="1" page="1" pageScale="1" pageWidth="827" pageHeight="1169" math="0" shadow="0">
      <root>
        <mxCell id="0" />
        <mxCell id="1" parent="0" />
        <mxCell id="YFHYgFWbha_yTbv6Lzt8-1" value="Application web" style="text;html=1;align=center;verticalAlign=middle;whiteSpace=wrap;rounded=0;" vertex="1" parent="1">
          <mxGeometry width="110" height="30" as="geometry" />
        </mxCell>
        <mxCell id="YFHYgFWbha_yTbv6Lzt8-12" style="edgeStyle=orthogonalEdgeStyle;rounded=0;orthogonalLoop=1;jettySize=auto;html=1;entryX=0;entryY=0.5;entryDx=0;entryDy=0;" edge="1" parent="1" source="YFHYgFWbha_yTbv6Lzt8-2" target="YFHYgFWbha_yTbv6Lzt8-3">
          <mxGeometry relative="1" as="geometry" />
        </mxCell>
        <mxCell id="YFHYgFWbha_yTbv6Lzt8-17" style="edgeStyle=orthogonalEdgeStyle;rounded=0;orthogonalLoop=1;jettySize=auto;html=1;entryX=0;entryY=0.5;entryDx=0;entryDy=0;" edge="1" parent="1" source="YFHYgFWbha_yTbv6Lzt8-2" target="YFHYgFWbha_yTbv6Lzt8-16">
          <mxGeometry relative="1" as="geometry" />
        </mxCell>
        <mxCell id="YFHYgFWbha_yTbv6Lzt8-19" style="edgeStyle=orthogonalEdgeStyle;rounded=0;orthogonalLoop=1;jettySize=auto;html=1;entryX=0;entryY=0.5;entryDx=0;entryDy=0;" edge="1" parent="1" source="YFHYgFWbha_yTbv6Lzt8-2" target="YFHYgFWbha_yTbv6Lzt8-18">
          <mxGeometry relative="1" as="geometry" />
        </mxCell>
        <mxCell id="YFHYgFWbha_yTbv6Lzt8-2" value="Visiteur" style="shape=umlActor;verticalLabelPosition=bottom;verticalAlign=top;html=1;outlineConnect=0;" vertex="1" parent="1">
          <mxGeometry x="60" y="130" width="30" height="60" as="geometry" />
        </mxCell>
        <mxCell id="YFHYgFWbha_yTbv6Lzt8-15" style="edgeStyle=orthogonalEdgeStyle;rounded=0;orthogonalLoop=1;jettySize=auto;html=1;" edge="1" parent="1" source="YFHYgFWbha_yTbv6Lzt8-3" target="YFHYgFWbha_yTbv6Lzt8-13">
          <mxGeometry relative="1" as="geometry" />
        </mxCell>
        <mxCell id="YFHYgFWbha_yTbv6Lzt8-3" value="Visualiser les&amp;nbsp;&lt;div&gt;derniers films&lt;/div&gt;&lt;div&gt;ajoutés&lt;/div&gt;" style="ellipse;whiteSpace=wrap;html=1;" vertex="1" parent="1">
          <mxGeometry x="210" y="30" width="120" height="80" as="geometry" />
        </mxCell>
        <mxCell id="YFHYgFWbha_yTbv6Lzt8-28" style="edgeStyle=orthogonalEdgeStyle;rounded=0;orthogonalLoop=1;jettySize=auto;html=1;entryX=0;entryY=0.5;entryDx=0;entryDy=0;" edge="1" parent="1" source="YFHYgFWbha_yTbv6Lzt8-4" target="YFHYgFWbha_yTbv6Lzt8-27">
          <mxGeometry relative="1" as="geometry" />
        </mxCell>
        <mxCell id="YFHYgFWbha_yTbv6Lzt8-4" value="Employé" style="shape=umlActor;verticalLabelPosition=bottom;verticalAlign=top;html=1;outlineConnect=0;" vertex="1" parent="1">
          <mxGeometry x="60" y="410" width="30" height="60" as="geometry" />
        </mxCell>
        <mxCell id="YFHYgFWbha_yTbv6Lzt8-32" style="edgeStyle=orthogonalEdgeStyle;rounded=0;orthogonalLoop=1;jettySize=auto;html=1;entryX=0;entryY=0.5;entryDx=0;entryDy=0;" edge="1" parent="1" source="YFHYgFWbha_yTbv6Lzt8-5" target="YFHYgFWbha_yTbv6Lzt8-30">
          <mxGeometry relative="1" as="geometry" />
        </mxCell>
        <mxCell id="YFHYgFWbha_yTbv6Lzt8-5" value="Administrateur" style="shape=umlActor;verticalLabelPosition=bottom;verticalAlign=top;html=1;outlineConnect=0;" vertex="1" parent="1">
          <mxGeometry x="60" y="650" width="30" height="60" as="geometry" />
        </mxCell>
        <mxCell id="YFHYgFWbha_yTbv6Lzt8-6" value="CRUD films et séances" style="ellipse;whiteSpace=wrap;html=1;" vertex="1" parent="1">
          <mxGeometry x="400" y="310" width="120" height="80" as="geometry" />
        </mxCell>
        <mxCell id="YFHYgFWbha_yTbv6Lzt8-13" value="Réserver une&lt;div&gt;séance&lt;/div&gt;" style="ellipse;whiteSpace=wrap;html=1;" vertex="1" parent="1">
          <mxGeometry x="400" y="30" width="120" height="80" as="geometry" />
        </mxCell>
        <mxCell id="YFHYgFWbha_yTbv6Lzt8-16" value="Créer un compte" style="ellipse;whiteSpace=wrap;html=1;" vertex="1" parent="1">
          <mxGeometry x="210" y="120" width="120" height="80" as="geometry" />
        </mxCell>
        <mxCell id="YFHYgFWbha_yTbv6Lzt8-18" value="Se connecter" style="ellipse;whiteSpace=wrap;html=1;" vertex="1" parent="1">
          <mxGeometry x="210" y="210" width="120" height="80" as="geometry" />
        </mxCell>
        <mxCell id="YFHYgFWbha_yTbv6Lzt8-21" value="CRUD salles" style="ellipse;whiteSpace=wrap;html=1;" vertex="1" parent="1">
          <mxGeometry x="400" y="400" width="120" height="80" as="geometry" />
        </mxCell>
        <mxCell id="YFHYgFWbha_yTbv6Lzt8-23" value="Concevoir un&lt;div&gt;compte employé&lt;/div&gt;" style="ellipse;whiteSpace=wrap;html=1;" vertex="1" parent="1">
          <mxGeometry x="400" y="770" width="120" height="80" as="geometry" />
        </mxCell>
        <mxCell id="YFHYgFWbha_yTbv6Lzt8-35" style="edgeStyle=orthogonalEdgeStyle;rounded=0;orthogonalLoop=1;jettySize=auto;html=1;entryX=0;entryY=0.5;entryDx=0;entryDy=0;" edge="1" parent="1" source="YFHYgFWbha_yTbv6Lzt8-27" target="YFHYgFWbha_yTbv6Lzt8-6">
          <mxGeometry relative="1" as="geometry" />
        </mxCell>
        <mxCell id="YFHYgFWbha_yTbv6Lzt8-36" style="edgeStyle=orthogonalEdgeStyle;rounded=0;orthogonalLoop=1;jettySize=auto;html=1;entryX=0;entryY=0.5;entryDx=0;entryDy=0;" edge="1" parent="1" source="YFHYgFWbha_yTbv6Lzt8-27" target="YFHYgFWbha_yTbv6Lzt8-21">
          <mxGeometry relative="1" as="geometry" />
        </mxCell>
        <mxCell id="YFHYgFWbha_yTbv6Lzt8-27" value="Se connecter" style="ellipse;whiteSpace=wrap;html=1;" vertex="1" parent="1">
          <mxGeometry x="210" y="310" width="120" height="80" as="geometry" />
        </mxCell>
        <mxCell id="YFHYgFWbha_yTbv6Lzt8-37" style="edgeStyle=orthogonalEdgeStyle;rounded=0;orthogonalLoop=1;jettySize=auto;html=1;entryX=0;entryY=0.5;entryDx=0;entryDy=0;" edge="1" parent="1" source="YFHYgFWbha_yTbv6Lzt8-30" target="YFHYgFWbha_yTbv6Lzt8-33">
          <mxGeometry relative="1" as="geometry" />
        </mxCell>
        <mxCell id="YFHYgFWbha_yTbv6Lzt8-38" style="edgeStyle=orthogonalEdgeStyle;rounded=0;orthogonalLoop=1;jettySize=auto;html=1;entryX=0;entryY=0.5;entryDx=0;entryDy=0;" edge="1" parent="1" source="YFHYgFWbha_yTbv6Lzt8-30" target="YFHYgFWbha_yTbv6Lzt8-34">
          <mxGeometry relative="1" as="geometry" />
        </mxCell>
        <mxCell id="YFHYgFWbha_yTbv6Lzt8-39" style="edgeStyle=orthogonalEdgeStyle;rounded=0;orthogonalLoop=1;jettySize=auto;html=1;entryX=0;entryY=0.5;entryDx=0;entryDy=0;" edge="1" parent="1" source="YFHYgFWbha_yTbv6Lzt8-30" target="YFHYgFWbha_yTbv6Lzt8-23">
          <mxGeometry relative="1" as="geometry" />
        </mxCell>
        <mxCell id="YFHYgFWbha_yTbv6Lzt8-30" value="Se connecter" style="ellipse;whiteSpace=wrap;html=1;" vertex="1" parent="1">
          <mxGeometry x="210" y="590" width="120" height="80" as="geometry" />
        </mxCell>
        <mxCell id="YFHYgFWbha_yTbv6Lzt8-33" value="CRUD films et séances" style="ellipse;whiteSpace=wrap;html=1;" vertex="1" parent="1">
          <mxGeometry x="400" y="590" width="120" height="80" as="geometry" />
        </mxCell>
        <mxCell id="YFHYgFWbha_yTbv6Lzt8-34" value="CRUD salles" style="ellipse;whiteSpace=wrap;html=1;" vertex="1" parent="1">
          <mxGeometry x="400" y="680" width="120" height="80" as="geometry" />
        </mxCell>
      </root>
    </mxGraphModel>
  </diagram>
</mxfile>
